Coordinates
version=1
nRows=14
nColumns=40
inDegrees=yes

Units are S.I. units (second, meters, Newtons, ...)
Angles are in degrees.

endheader
time	pelvis_tilt	pelvis_list	pelvis_rotation	pelvis_tx	pelvis_ty	pelvis_tz	hip_flexion_r	hip_adduction_r	hip_rotation_r	knee_angle_r	knee_angle_r_beta	ankle_angle_r	subtalar_angle_r	mtp_angle_r	hip_flexion_l	hip_adduction_l	hip_rotation_l	knee_angle_l	knee_angle_l_beta	ankle_angle_l	subtalar_angle_l	mtp_angle_l	lumbar_extension	lumbar_bending	lumbar_rotation	arm_flex_r	arm_add_r	arm_rot_r	elbow_flex_r	pro_sup_r	wrist_flex_r	wrist_dev_r	arm_flex_l	arm_add_l	arm_rot_l	elbow_flex_l	pro_sup_l	wrist_flex_l	wrist_dev_l
      6.05300000	     -5.49408265	     -6.42641311	      1.76573929	      0.75933997	      0.92214868	      0.49942322	      1.65369442	      5.76883039	    -17.70067473	      8.59879137	      8.59879137	     14.42234013	      7.76284336	     -6.24984136	     31.40363837	     -9.15541722	     -3.28580721	     18.92832416	     18.92832416	      3.76456250	     -9.76998754	      9.32676347	     -9.39011076	      8.77733571	      3.04301166	     32.45437425	    -13.11828785	     -1.67440430	    101.99326551	     43.92424723	      0.00000000	      0.00000000	     -9.48689817	    -10.31043314	     -5.42061827	     37.52801267	     46.35661085	      0.00000000	      0.00000000
      6.06600000	     -5.43762402	     -6.51089091	      1.75834747	      0.76081108	      0.92131726	      0.49730970	      1.03206266	      5.71586879	    -17.72624181	      8.63649201	      8.63649201	     14.99904072	      8.05149037	     -5.49850281	     30.92453169	     -9.07670689	     -3.20246914	     19.23377326	     19.23377326	      2.89826990	    -10.29096120	      8.35723834	     -9.20450563	      8.73955374	      2.93802980	     32.60555220	    -13.18723741	     -0.70708254	    104.18396888	     43.85656836	      0.00000000	      0.00000000	    -10.14360940	    -10.40748955	     -4.76538679	     38.23484595	     46.26651316	      0.00000000	      0.00000000
      6.07900000	     -5.37381340	     -6.46408465	      1.67928974	      0.76229608	      0.92067314	      0.49500976	      0.47372044	      5.48204713	    -17.57324996	      8.79601274	      8.79601274	     15.32995374	      8.07853617	     -5.44129622	     30.52314052	     -8.92574484	     -3.30175252	     19.77090230	     19.77090230	      2.60810314	    -10.53614153	      8.18812034	     -8.95228363	      8.55576008	      3.02239584	     32.88903363	    -13.18579081	     -0.63897808	    104.54823879	     43.84937899	      0.00000000	      0.00000000	    -10.37005510	    -10.35637515	     -4.64435357	     38.25232015	     46.24844088	      0.00000000	      0.00000000
      6.09200000	     -5.33426301	     -6.40612599	      1.66820822	      0.76366223	      0.92015207	      0.49246462	     -0.01646775	      5.21333059	    -17.49696080	      9.00611828	      9.00611828	     15.64732288	      8.03049627	     -5.35345690	     30.20338490	     -8.71268025	     -3.25958833	     20.33859042	     20.33859042	      2.45433024	    -10.76404540	      7.93401354	     -8.72116662	      8.33460006	      3.00250587	     33.09293280	    -13.16524049	     -0.50181157	    105.00635376	     43.83605666	      0.00000000	      0.00000000	    -10.56411119	    -10.29180140	     -4.52692225	     38.27292227	     46.23131568	      0.00000000	      0.00000000
      6.10500000	     -5.33486151	     -6.43338894	      1.67677103	      0.76471595	      0.91965898	      0.48971044	     -0.18231514	      4.93073214	    -17.45602310	      9.74466807	      9.74466807	     16.18608732	      7.91187219	     -4.76152969	     30.04948577	     -8.55250419	     -3.03373727	     21.01835121	     21.01835121	      2.21694509	    -11.22731438	      7.04304545	     -8.59160688	      8.29780448	      2.88726625	     33.25859290	    -13.28655522	      0.08658762	    106.30134156	     43.79550385	      0.00000000	      0.00000000	    -10.78559756	    -10.35305145	     -4.15083384	     38.54591785	     46.18275156	      0.00000000	      0.00000000
      6.11800000	     -5.32740549	     -6.29427158	      1.70897005	      0.76587827	      0.91965795	      0.48670256	     -0.59697835	      4.53520813	    -17.41530809	      9.97162399	      9.97162399	     16.28556553	      7.80936435	     -4.63650359	     29.74868858	     -8.21622471	     -2.95107933	     21.50268896	     21.50268896	      2.41323171	    -11.41621411	      6.75113564	     -8.38110268	      8.00601973	      2.82538622	     33.19486637	    -13.42086825	      0.12205822	    106.39773446	     43.79450626	      0.00000000	      0.00000000	    -10.80731572	    -10.23758766	     -4.06267793	     38.57736063	     46.17169169	      0.00000000	      0.00000000
      6.13100000	     -5.35154911	     -6.19261900	      1.68805503	      0.76666314	      0.91964278	      0.48357911	     -0.42604224	      3.98023246	    -17.37249548	     11.30943793	     11.30943793	     17.14449159	      7.59063750	     -3.16261440	     29.59802293	     -7.92297459	     -2.83388831	     22.12327928	     22.12327928	      2.33071646	    -12.01987042	      5.53737718	     -8.27633452	      7.79815257	      3.04291110	     32.86834204	    -14.13010915	      0.49786522	    107.20616226	     43.80171850	      0.00000000	      0.00000000	    -10.64938141	    -10.40372550	     -3.25768516	     38.79513039	     46.07648039	      0.00000000	      0.00000000
      6.14400000	     -5.20544460	     -6.13386594	      1.74988256	      0.76745966	      0.92019072	      0.48034682	     -0.72659488	      3.57922737	    -17.32419087	     11.99221701	     11.99221701	     17.16568694	      7.41471267	     -3.04587444	     29.28635145	     -7.66998949	     -2.68613376	     22.78688830	     22.78688830	      2.79214353	    -12.29324202	      5.18589167	     -8.34514658	      7.58133747	      2.96730774	     32.72580277	    -14.28221682	      0.42011746	    107.09329242	     43.81507258	      0.00000000	      0.00000000	    -10.48261914	    -10.36361758	     -3.13177980	     38.79118259	     46.06338123	      0.00000000	      0.00000000
      6.15700000	     -5.13857039	     -6.05500350	      1.78392490	      0.76810880	      0.92085703	      0.47692893	     -0.79588826	      3.09192500	    -17.31023296	     12.92519511	     12.92519511	     17.15544424	      7.11811941	     -3.03772708	     28.96969304	     -7.38392407	     -2.53459538	     23.30243329	     23.30243329	      3.39960018	    -12.47016093	      4.85906241	     -8.38841283	      7.45941994	      2.89348217	     32.39631045	    -14.46920477	      0.37102671	    106.86116466	     43.82885840	      0.00000000	      0.00000000	    -10.23992464	    -10.26572904	     -3.02929757	     38.80588601	     46.05419435	      0.00000000	      0.00000000
      6.17000000	     -5.23441812	     -5.94277281	      1.68239570	      0.76842854	      0.92138888	      0.47366353	     -0.24845904	      2.41777020	    -17.15450303	     14.68141533	     14.68141533	     17.22959722	      6.65192889	     -3.19229457	     28.77641094	     -7.13008171	     -2.61770561	     23.73408821	     23.73408821	      4.03789022	    -12.55350460	      4.62292897	     -8.25989312	      7.26627776	      3.07150015	     32.04728456	    -14.82121352	      0.22782962	    106.36088929	     43.85948120	      0.00000000	      0.00000000	     -9.84081179	    -10.29010429	     -2.89722638	     38.76959575	     46.04324554	      0.00000000	      0.00000000
      6.18300000	     -5.32911390	     -5.86771766	      1.63073505	      0.76867245	      0.92205519	      0.47039584	      0.38016849	      1.77682481	    -17.01739921	     16.56212746	     16.56212746	     17.14716923	      6.08109598	     -3.44341089	     28.51345411	     -6.90671309	     -2.75936589	     24.01907487	     24.01907487	      4.76226993	    -12.51186228	      4.53667874	     -8.13569419	      7.06049781	      3.17333276	     31.46617210	    -15.11789066	      0.00411642	    105.68438149	     43.90355202	      0.00000000	      0.00000000	     -9.36397872	    -10.24898924	     -2.68634126	     38.64684686	     46.02384687	      0.00000000	      0.00000000
      6.19600000	     -5.30980416	     -5.81300191	      1.52674930	      0.76889553	      0.92297189	      0.46724858	      0.97545876	      1.14089372	    -16.81181123	     18.57917823	     18.57917823	     16.88572059	      5.46519019	     -3.90574246	     28.06578006	     -6.74935830	     -2.99602509	     24.21789500	     24.21789500	      5.47160227	    -12.37224548	      4.39054466	     -8.16267487	      6.89381233	      3.24660930	     30.82475906	    -15.32322289	     -0.15328070	    104.94677156	     43.94225293	      0.00000000	      0.00000000	     -8.89330968	    -10.25697781	     -2.57060763	     38.64325147	     46.01624320	      0.00000000	      0.00000000
      6.20900000	     -5.33917594	     -5.78258452	      1.38263530	      0.76899955	      0.92379117	      0.46430285	      1.85028108	      0.48870888	    -16.52745107	     20.98074694	     20.98074694	     16.47090485	      4.64885232	     -4.62235736	     27.61385535	     -6.65479104	     -3.33682605	     24.31315719	     24.31315719	      6.16899720	    -12.09044412	      4.20311479	     -8.14051940	      6.71431583	      3.31262332	     30.06692117	    -15.47661766	     -0.31012933	    104.04869381	     43.98519590	      0.00000000	      0.00000000	     -8.41358608	    -10.28651049	     -2.48195912	     38.69719134	     46.01237820	      0.00000000	      0.00000000
      6.22200000	     -5.37193732	     -5.75415415	      1.20386455	      0.76894396	      0.92456126	      0.46147294	      2.94028087	     -0.18800482	    -16.13354971	     23.72252230	     23.72252230	     15.86373292	      3.62664038	     -5.53391806	     27.13799512	     -6.59006810	     -3.77295700	     24.35176883	     24.35176883	      6.80694701	    -11.68398539	      3.96253012	     -8.13968270	      6.54604433	      3.35166406	     29.22283346	    -15.54896688	     -0.43748798	    103.04599104	     44.02963125	      0.00000000	      0.00000000	     -7.92754931	    -10.35699557	     -2.42050015	     38.82150054	     46.01229194	      0.00000000	      0.00000000
